<?xml version="1.0" encoding="UTF-8"?>
<svg version="1.1" xmlns="http://www.w3.org/2000/svg" width="1000" height="224">
<path d="M0 0 C16.64154451 13.77407838 25.50225635 37.18446318 28.2890625 58.0390625 C30.12794958 84.61420687 26.50887462 112.95313234 9.0390625 134.3515625 C-3.02070977 147.08132212 -19.76465002 154.69210922 -37.22265625 155.28515625 C-58.06705863 155.66429995 -76.59962684 153.18875376 -92.48046875 138.47265625 C-99.07815742 131.98823262 -99.07815742 131.98823262 -101.7109375 128.0390625 C-102.0409375 155.0990625 -102.3709375 182.1590625 -102.7109375 210.0390625 C-107.3309375 210.0390625 -111.9509375 210.0390625 -116.7109375 210.0390625 C-116.7109375 137.4390625 -116.7109375 64.8390625 -116.7109375 -9.9609375 C-112.4209375 -9.9609375 -108.1309375 -9.9609375 -103.7109375 -9.9609375 C-103.3809375 0.5990625 -103.0509375 11.1590625 -102.7109375 22.0390625 C-100.0709375 17.7490625 -97.4309375 13.4590625 -94.7109375 9.0390625 C-71.90775857 -19.239456 -28.43931871 -20.5713804 0 0 Z M-87.7109375 17.0390625 C-95.69723766 27.41048121 -98.99676899 38.91651892 -101.4609375 51.6015625 C-101.68136719 52.66052734 -101.90179688 53.71949219 -102.12890625 54.81054688 C-105.61264097 72.36986815 -104.30676763 94.63721913 -96.7109375 111.0390625 C-96.27910156 111.97363281 -95.84726562 112.90820312 -95.40234375 113.87109375 C-88.50509965 127.53473992 -78.08160642 136.43232695 -63.53125 141.26171875 C-47.07481956 145.7974939 -31.9892391 144.82645038 -16.7109375 137.0390625 C0.15997754 126.72280203 8.49013001 111.8730639 13.2890625 93.0390625 C13.51464844 92.20761719 13.74023438 91.37617187 13.97265625 90.51953125 C18.98589393 68.56500763 14.46272932 43.93904094 3.3515625 24.5390625 C-5.50441089 10.87752216 -17.91984064 2.29387715 -33.8984375 -1.2734375 C-53.6488139 -4.51836506 -74.27844089 1.99658866 -87.7109375 17.0390625 Z " fill="#050507" transform="translate(426.7109375,13.9609375)"/>
<path d="M0 0 C2.17516912 1.63877538 4.21511343 3.34181743 6.234375 5.16796875 C6.84410156 5.69777344 7.45382813 6.22757813 8.08203125 6.7734375 C21.6145598 19.29474414 27.01756178 37.43346295 29.234375 55.16796875 C29.234375 61.76796875 29.234375 68.36796875 29.234375 75.16796875 C-13.335625 75.16796875 -55.905625 75.16796875 -99.765625 75.16796875 C-97.98414806 93.87347666 -95.79831083 115.61440261 -80.765625 129.16796875 C-65.57994101 141.20540118 -50.85647348 144.5124979 -31.765625 143.16796875 C-17.25808708 141.20576602 -4.92005845 134.59089977 4.234375 123.16796875 C8.07925431 116.90040205 10.79453055 110.13082388 13.27734375 103.2265625 C14.3256305 100.97167632 15.29186771 99.71249893 17.234375 98.16796875 C21.76018794 97.09823115 24.21625693 96.88073231 28.234375 99.16796875 C24.02873282 118.66235721 16.34820076 134.68302668 -0.765625 146.16796875 C-18.62830928 157.01137287 -40.55293385 159.48413292 -60.828125 154.66796875 C-80.00833387 148.45496655 -94.57792384 138.15562511 -104.37890625 120.21484375 C-115.04815787 98.71749309 -117.1376407 74.61901041 -112.078125 51.41796875 C-111.83449219 50.29374512 -111.59085937 49.16952148 -111.33984375 48.01123047 C-106.39707897 26.74548428 -95.45630789 8.92868261 -76.765625 -2.83203125 C-51.73805707 -17.29750629 -23.89355519 -15.82779292 0 0 Z M-84.73046875 20.32421875 C-94.83430991 32.52842076 -99.765625 47.45789403 -99.765625 63.16796875 C-61.485625 63.16796875 -23.205625 63.16796875 16.234375 63.16796875 C13.72240002 41.81618141 9.5649307 25.71732544 -6.83984375 11.3515625 C-31.37023335 -7.87756412 -64.43826678 -1.94475836 -84.73046875 20.32421875 Z " fill="#050507" transform="translate(114.765625,12.83203125)"/>
<path d="M0 0 C9.81323407 10.71541849 14.59004412 23.04763011 17.546875 37.08203125 C17.70583252 37.82533691 17.86479004 38.56864258 18.02856445 39.33447266 C19.87054721 48.74517131 20.45731429 57.99892414 21.421875 67.64453125 C-21.808125 67.64453125 -65.038125 67.64453125 -109.578125 67.64453125 C-107.17874616 91.63831967 -103.77946892 109.93368518 -85.1640625 125.6875 C-72.55827813 135.07180614 -56.63978943 138.30196551 -41.1953125 136.1796875 C-27.1254916 133.56672076 -15.57219627 127.56409582 -6.6484375 116.18359375 C-2.57598701 110.15636703 0.31015508 103.70806679 2.93823242 96.95092773 C4.93221442 92.01990485 4.93221442 92.01990485 7.36328125 90.15625 C10.90236593 89.27651548 13.84922894 90.04909024 17.421875 90.64453125 C16.75568669 106.0001718 9.70636118 121.10794473 -1.578125 131.64453125 C-19.33684636 146.28384701 -38.0125206 150.27204479 -60.578125 148.64453125 C-78.59831066 146.79129454 -94.97318026 138.72266093 -106.578125 124.64453125 C-115.61581805 111.96478279 -120.08044817 98.9100526 -122.578125 83.64453125 C-122.71089844 82.86851563 -122.84367188 82.0925 -122.98046875 81.29296875 C-126.37738712 57.18880827 -121.90909498 28.67864235 -107.578125 8.64453125 C-104.75560672 5.113836 -101.76482988 1.84800826 -98.578125 -1.35546875 C-97.98773437 -1.98066406 -97.39734375 -2.60585938 -96.7890625 -3.25 C-88.20976483 -11.62142923 -75.25732838 -17.23524414 -63.578125 -19.35546875 C-62.78148437 -19.50757812 -61.98484375 -19.6596875 -61.1640625 -19.81640625 C-38.53745448 -22.96872006 -16.54715146 -15.4668438 0 0 Z M-93.578125 11.64453125 C-104.42402227 24.7402624 -108.06359761 38.98472993 -109.578125 55.64453125 C-71.298125 55.64453125 -33.018125 55.64453125 6.421875 55.64453125 C5.0181789 35.99278585 0.49183434 18.39256433 -14.578125 4.64453125 C-39.26920909 -14.04061346 -72.29579423 -11.21426847 -93.578125 11.64453125 Z " fill="#040507" transform="translate(679.578125,20.35546875)"/>
<path d="M0 0 C7.30428996 6.60524658 12.83860897 16.11976034 14 26 C14.14514765 30.33941416 14.11907693 34.66030753 14 39 C10.04 39 6.08 39 2 39 C1.84144531 38.02160156 1.68289063 37.04320312 1.51953125 36.03515625 C0.16071444 28.20221228 -1.40263138 21.64872614 -6 15 C-6.556875 14.113125 -7.11375 13.22625 -7.6875 12.3125 C-18.50210517 1.49789483 -32.83688626 -0.29542758 -47.3449707 -0.31689453 C-60.35465971 -0.14418539 -74.02395142 2.73150411 -83.9375 11.765625 C-89.5034841 17.92031896 -90.46590979 23.51734319 -90.30859375 31.70703125 C-89.72044494 37.98310019 -87.57228558 42.81874302 -83.0625 47.25 C-71.58624137 55.71805483 -55.21514975 58.01751493 -41.6875 61.5 C4.60189621 73.47540068 4.60189621 73.47540068 12.375 84.25 C13.29266749 85.80899193 14.16818563 87.3935585 15 89 C15.4125 89.77601562 15.825 90.55203125 16.25 91.3515625 C20.71113933 101.35814585 20.81635956 114.73976065 17.4375 125.125 C11.40335778 138.78121661 0.49309498 145.72755364 -13 151 C-36.13840498 158.23601029 -62.35229673 156.72166931 -83.9296875 145.47265625 C-96.03886702 138.34467662 -104.21871971 127.88197315 -108.03125 114.3359375 C-109.31577319 108.6864142 -110 103.83342094 -110 98 C-105.71 98 -101.42 98 -97 98 C-96.62875 100.083125 -96.2575 102.16625 -95.875 104.3125 C-93.24994361 116.51346631 -87.37490598 126.51615209 -77.0625 133.625 C-61.8650078 142.85576134 -43.19567757 145.61100509 -25.9375 141.4375 C-16.40272537 138.92045895 -5.00475346 135.13640403 0.95703125 126.86328125 C5.43648444 118.86066262 6.45840809 110.17219136 4.34375 101.22265625 C2.24872148 95.21750984 -0.45019473 91.17526172 -6 88 C-16.67250893 82.90203565 -28.30671312 80.17388748 -39.66738892 77.04534912 C-52.31404417 73.55854918 -64.71207741 69.6108195 -77 65 C-77.72396973 64.73622559 -78.44793945 64.47245117 -79.19384766 64.20068359 C-89.73907097 60.32461513 -96.8597441 55.89681712 -102 45.6875 C-105.936766 35.17166405 -105.82745173 21.58352374 -101.25390625 11.2890625 C-94.34531287 -1.32288678 -83.44212614 -6.68438419 -70.03515625 -10.94140625 C-46.58068206 -17.60131868 -19.96723314 -14.66343684 0 0 Z " fill="#040507" transform="translate(830,14)"/>
<path d="M0 0 C16.81874061 -0.45456056 34.13929962 3.15061079 47.96875 13.15625 C48.979375 13.8575 49.99 14.55875 51.03125 15.28125 C57.8159681 21.19470649 62.62055273 30.3055846 63.96875 39.15625 C64.18391143 43.83601111 64.1508316 48.47607851 63.96875 53.15625 C60.00875 53.15625 56.04875 53.15625 51.96875 53.15625 C51.81019531 52.18945312 51.65164063 51.22265625 51.48828125 50.2265625 C49.47859661 38.69833457 46.81794602 29.56931174 37.42578125 21.84375 C33.50389012 19.15017771 29.50715172 17.52428497 24.96875 16.15625 C24.27394531 15.94355469 23.57914063 15.73085937 22.86328125 15.51171875 C6.06156119 11.13003191 -11.257418 13.28466112 -27.03125 20.15625 C-33.05676859 23.96998458 -37.49133087 29.14110797 -39.609375 36.0390625 C-41.20297932 44.03659527 -40.32839196 51.20499094 -36.03125 58.15625 C-29.64192418 65.92705167 -21.59935981 68.08514048 -12.17577553 70.38947868 C-10.16563832 70.88121973 -8.15918376 71.38608519 -6.15312195 71.8941803 C-1.88621069 72.97236988 2.38474985 74.03391134 6.65625 75.09375 C11.59580536 76.32042233 16.53341975 77.5542128 21.46750832 78.80270576 C23.42170289 79.29382498 25.37875015 79.77354937 27.33586121 80.25291443 C48.09839886 85.48782629 48.09839886 85.48782629 55.46875 92.65625 C56.2421875 93.3884375 57.015625 94.120625 57.8125 94.875 C66.06142375 103.60212223 69.3228036 112.14651459 70.28125 124.03125 C69.87200041 135.97170873 64.9487617 147.32497255 56.1953125 155.5 C38.90856362 168.35891495 15.43319519 171.9750344 -5.55761719 169.31298828 C-22.60628244 166.71796346 -37.71773179 160.59353391 -49.03125 147.15625 C-56.98306358 136.20153636 -59.19146667 125.45423396 -59.03125 112.15625 C-55.07125 112.15625 -51.11125 112.15625 -47.03125 112.15625 C-46.77472656 113.08824219 -46.51820313 114.02023438 -46.25390625 114.98046875 C-41.94489513 129.68351344 -34.2756607 142.1408487 -20.73828125 150.08984375 C-5.85667233 158.11424072 10.41248368 161.17571169 26.92578125 156.32421875 C38.10539102 152.03320037 48.587441 146.81648252 53.84375 135.46875 C57.05945683 126.00027988 56.39716515 118.12457348 52.0078125 109.203125 C46.84351112 100.77908729 36.20241856 98.35306823 27.21875 95.90625 C25.09998373 95.30566273 22.98150777 94.70405065 20.86328125 94.1015625 C19.18999756 93.63024902 19.18999756 93.63024902 17.48291016 93.14941406 C1.90148145 88.74582562 -13.67965069 84.29727687 -28.84375 78.59375 C-29.74939697 78.26648926 -30.65504395 77.93922852 -31.58813477 77.60205078 C-40.13470761 74.25889661 -47.42225727 68.81958177 -51.27734375 60.30859375 C-55.17682453 49.1758792 -55.86085625 37.13970937 -51.03125 26.15625 C-45.62308193 14.93020416 -36.36206387 9.5171639 -25.03125 5.15625 C-16.67366339 2.36148728 -8.76480772 0.45179421 0 0 Z " fill="#040507" transform="translate(930.03125,-0.15625)"/>
<path d="M0 0 C2.17771751 2.53383837 4.05157805 5.24488562 5.9375 8 C7.08150949 9.62758557 8.22741531 11.25383952 9.375 12.87890625 C9.96796875 13.72211426 10.5609375 14.56532227 11.171875 15.43408203 C14.18285079 19.6602246 17.30978496 23.79741116 20.4375 27.9375 C26.1980997 35.57660497 31.8935222 43.26017525 37.52124023 50.99780273 C38.06594971 51.74231689 38.61065918 52.48683105 39.171875 53.25390625 C39.6472168 53.90689697 40.12255859 54.5598877 40.61230469 55.23266602 C41.96985765 56.96161146 43.41296798 58.48177841 45 60 C54.57221002 47.83577445 63.86618476 35.49575706 73 23 C75.51782859 19.56028673 78.03941933 16.12336183 80.5625 12.6875 C81.13419922 11.90511963 81.70589844 11.12273926 82.29492188 10.31665039 C92.09605704 -3.03201901 92.09605704 -3.03201901 98 -5 C101.68206328 -5.22885752 105.31667177 -5.17695705 109 -5 C109 -0.3265616 108.30859042 0.36912299 105.5 3.9375 C104.66909344 5.00897704 103.83837987 6.08060376 103.0078125 7.15234375 C102.53504883 7.75546387 102.06228516 8.35858398 101.57519531 8.97998047 C98.47242831 12.95894733 95.43030647 16.98455934 92.375 21 C91.69026611 21.8971875 91.00553223 22.794375 90.30004883 23.71875 C85.56021945 29.93203012 80.86391774 36.17640655 76.1875 42.4375 C71.31916858 48.95431971 66.38841365 55.41202289 61.32299805 61.77709961 C57.54888932 66.26519551 57.54888932 66.26519551 55.46875 71.62109375 C56.28400974 76.80638546 59.28681918 80.01898668 62.5 84.0625 C63.17345459 84.93447021 63.84690918 85.80644043 64.54077148 86.70483398 C65.9653861 88.54848197 67.39578858 90.38767013 68.83154297 92.22265625 C72.2803907 96.63991496 75.66910493 101.10259747 79.0625 105.5625 C79.72878418 106.43511475 80.39506836 107.30772949 81.08154297 108.20678711 C86.64172671 115.49667061 92.10174612 122.85596503 97.51171875 130.2578125 C99.98150892 133.63246134 102.48969095 136.97483297 105.01953125 140.3046875 C105.6748584 141.17399902 106.33018555 142.04331055 107.00537109 142.93896484 C108.26965002 144.61476544 109.54182933 146.28464205 110.82275391 147.94775391 C111.38526855 148.69718262 111.9477832 149.44661133 112.52734375 150.21875 C113.02999756 150.87810547 113.53265137 151.53746094 114.05053711 152.21679688 C114.36385986 152.80525391 114.67718262 153.39371094 115 154 C114.67 154.99 114.34 155.98 114 157 C101.92280409 157.58022116 101.92280409 157.58022116 97 154 C90.88062001 148.17129056 86.26718437 140.90209937 81.42724609 134.01855469 C78.87509462 130.4090459 76.27950197 126.83094326 73.6875 123.25 C72.58195476 121.72140948 71.47648678 120.19276309 70.37109375 118.6640625 C69.81663574 117.89739258 69.26217773 117.13072266 68.69091797 116.34082031 C66.99054058 113.98690487 65.29361754 111.63053624 63.59765625 109.2734375 C54.45822793 95.58992131 54.45822793 95.58992131 44 83 C43.67950684 83.44577393 43.35901367 83.89154785 43.02880859 84.35083008 C35.02141365 95.48102408 26.93677802 106.55103919 18.78808594 117.578125 C16.35193969 120.87776601 13.92195798 124.18192603 11.49194336 127.48608398 C9.73029241 129.87936462 7.965139 132.27002474 6.19921875 134.66015625 C4.23040537 137.32542062 2.27353225 139.99838157 0.33203125 142.68359375 C-8.19313093 154.35035674 -8.19313093 154.35035674 -13.875 156.8125 C-22.8 157.6 -22.8 157.6 -26 156 C-24.69482004 152.36411299 -23.13566537 149.59087791 -20.76171875 146.55078125 C-20.11332031 145.71224609 -19.46492187 144.87371094 -18.796875 144.00976562 C-18.10078125 143.11966797 -17.4046875 142.22957031 -16.6875 141.3125 C-11.51379536 134.61630089 -6.41296926 127.88997858 -1.5 121 C3.21309711 114.40460743 8.06762305 107.93289805 13 101.5 C15.67090206 98.00321205 18.3371822 94.50294764 21 91 C21.65758301 90.13616699 22.31516602 89.27233398 22.99267578 88.38232422 C24.86375133 85.91115428 26.71582758 83.42693686 28.5625 80.9375 C29.12904297 80.19371094 29.69558594 79.44992188 30.27929688 78.68359375 C30.78654297 77.99265625 31.29378906 77.30171875 31.81640625 76.58984375 C32.26443604 75.99034912 32.71246582 75.39085449 33.17407227 74.77319336 C34.1735946 73.02108916 34.1735946 73.02108916 33.80102539 71.00219727 C32.9136609 68.78419171 31.86128479 67.23828551 30.3671875 65.375 C29.81587158 64.67858398 29.26455566 63.98216797 28.6965332 63.26464844 C28.09542725 62.51731445 27.49432129 61.76998047 26.875 61 C25.59343114 59.38149051 24.3135422 57.7616497 23.03515625 56.140625 C22.37016113 55.29822266 21.70516602 54.45582031 21.02001953 53.58789062 C17.71820271 49.35786183 14.51677226 45.05410481 11.3125 40.75 C6.15633164 33.84005987 0.91704725 27.01002903 -4.43359375 20.25 C-22 -1.94480163 -22 -1.94480163 -22 -5 C-13.91439636 -7.12779043 -6.45714289 -5.10468895 0 0 Z " fill="#040507" transform="translate(176,9)"/>
<path d="M0 0 C0 3.96 0 7.92 0 12 C-1.07636719 12.08636719 -2.15273438 12.17273437 -3.26171875 12.26171875 C-20.19800862 13.8104133 -35.27347479 19.17811338 -47.22265625 31.8359375 C-56.9228693 43.64674636 -61.28234811 57.01488833 -61.31884766 72.10961914 C-61.32889328 73.07653687 -61.3389389 74.04345459 -61.34928894 75.03967285 C-61.37994051 78.20482847 -61.39710568 81.36990022 -61.4140625 84.53515625 C-61.43278866 86.74190483 -61.45236314 88.94864636 -61.4727478 91.15538025 C-61.52392196 96.94041778 -61.56362627 102.72547849 -61.60089111 108.51062012 C-61.64102327 114.42315332 -61.69207348 120.33559134 -61.7421875 126.24804688 C-61.83877245 137.83196424 -61.92323274 149.41593553 -62 161 C-66.29 161 -70.58 161 -75 161 C-75 108.2 -75 55.4 -75 1 C-70.71 1 -66.42 1 -62 1 C-61.67 10.24 -61.34 19.48 -61 29 C-58.36 25.7 -55.72 22.4 -53 19 C-38.70898121 4.68853626 -19.72096513 -0.27015021 0 0 Z " fill="#040506" transform="translate(556,4)"/>
</svg>
